<svg xmlns="http://www.w3.org/2000/svg" width="24" height="24" viewBox="0 0 24 24">
<style type="text/css">
	.st0{fill:url(#SVGID_1_);}
</style>
<linearGradient id="SVGID_1_" gradientUnits="userSpaceOnUse" x1="4.7999" y1="12" x2="19.2001" y2="12">
	<stop  offset="0" style="stop-color:#1245C6"/>
	<stop  offset="1" style="stop-color:#9909B7"/>
</linearGradient>
<path class="st0" d="M18.4,5.6c-0.5-0.5-1.2-0.8-2-0.8H7.6c-0.8,0-1.4,0.3-2,0.8c-0.5,0.5-0.8,1.2-0.8,2v8.8c0,0.8,0.3,1.4,0.8,2
	c0.5,0.6,1.2,0.8,2,0.8h8.8c0.8,0,1.4-0.3,2-0.8c0.5-0.5,0.8-1.2,0.8-2V7.6C19.2,6.8,18.9,6.2,18.4,5.6z M17.6,16.4
	c0,0.3-0.1,0.6-0.4,0.8c-0.2,0.2-0.5,0.3-0.8,0.3H7.6c-0.3,0-0.6-0.1-0.8-0.3c-0.2-0.2-0.3-0.5-0.3-0.8V7.6c0-0.3,0.1-0.6,0.3-0.8
	C7,6.5,7.3,6.4,7.6,6.4h8.8c0.3,0,0.6,0.1,0.8,0.3c0.2,0.2,0.3,0.5,0.3,0.8V16.4z M15.9,11.3c0.1,0.1,0.1,0.2,0.1,0.3v0.8
	c0,0.1,0,0.2-0.1,0.3c-0.1,0.1-0.2,0.1-0.3,0.1h-2.8v2.8c0,0.1,0,0.2-0.1,0.3C12.6,16,12.5,16,12.4,16h-0.8c-0.1,0-0.2,0-0.3-0.1
	c-0.1-0.1-0.1-0.2-0.1-0.3v-2.8H8.4c-0.1,0-0.2,0-0.3-0.1C8,12.6,8,12.5,8,12.4v-0.8c0-0.1,0-0.2,0.1-0.3c0.1-0.1,0.2-0.1,0.3-0.1
	h2.8V8.4c0-0.1,0-0.2,0.1-0.3C11.4,8,11.5,8,11.6,8h0.8c0.1,0,0.2,0,0.3,0.1c0.1,0.1,0.1,0.2,0.1,0.3v2.8h2.8
	C15.7,11.2,15.8,11.2,15.9,11.3z"/>
</svg>
