<svg version="1.0" xmlns="http://www.w3.org/2000/svg"
 width="24" height="24" viewBox="0 0 1280.000000 1280.000000"
 preserveAspectRatio="xMidYMid meet">
<defs>
  <linearGradient id="gradiente" gradientTransform="rotate(90)">
    <stop offset="0%" stop-color="#1245C6" />
    <stop offset="65%" stop-color="#9909B7" />
  </linearGradient>
</defs>
<g transform="translate(0.000000,1280.000000) scale(0.100000,-0.100000)"
fill="#000000" stroke="none">
<path d="M4565 9600 l3200 -3200 -3200 -3200 -3200 -3200 1835 0 1835 0 3200
3200 3200 3200 -3200 3200 -3200 3200 -1835 0 -1835 0 3200 -3200z m3145 -175
l3025 -3025 -3025 -3025 -3025 -3025 -750 0 c-412 0 -838 5 -945 10 -335 17
-508 39 -517 66 -15 46 1036 1123 3716 3807 l2165 2167 -2125 2128 c-2328
2330 -3115 3130 -3571 3626 -165 180 -193 215 -181 227 17 17 156 37 338 49
255 16 242 16 1085 18 l785 2 3025 -3025z" fill="url(#gradiente)"/>
<path d="M4539 11980 c-75 -40 -120 -151 -99 -246 39 -174 217 -228 341 -104
106 106 80 253 -60 341 -54 35 -126 39 -182 9z" fill="url(#gradiente)"/>
<path d="M5210 11311 c-49 -16 -87 -40 -106 -68 -43 -64 -8 -253 57 -308 88
-73 272 31 325 183 24 70 -9 132 -91 174 -43 22 -144 33 -185 19z" fill="url(#gradiente)"/>
<path d="M5856 10606 c-109 -66 -115 -208 -13 -290 34 -27 47 -31 102 -31 55
0 68 4 102 31 73 58 92 139 52 221 -42 87 -159 120 -243 69z" fill="url(#gradiente)"/>
<path d="M6485 10037 c-21 -12 -53 -41 -69 -65 -25 -35 -31 -55 -34 -113 -4
-60 -1 -77 23 -125 53 -107 159 -142 265 -87 129 68 156 216 60 326 -74 84
-167 108 -245 64z" fill="url(#gradiente)"/>
<path d="M7147 9366 c-77 -28 -117 -86 -117 -166 0 -59 17 -97 60 -134 89 -74
220 -45 270 60 67 137 -71 292 -213 240z" fill="url(#gradiente)"/>
<path d="M7833 8726 c-65 -31 -138 -103 -165 -163 -37 -84 -6 -153 87 -199 49
-23 64 -26 129 -22 125 8 176 56 176 166 0 86 -25 159 -70 204 -46 46 -81 49
-157 14z" fill="url(#gradiente)"/>
<path d="M8454 8109 c-41 -12 -110 -87 -123 -135 -23 -82 -9 -160 39 -222 91
-116 276 -87 341 53 39 84 16 180 -61 248 -68 63 -122 78 -196 56z" fill="url(#gradiente)"/>
<path d="M9056 7406 c-109 -66 -115 -208 -13 -290 34 -27 47 -31 102 -31 55 0
68 4 102 31 73 58 92 139 52 221 -42 87 -159 120 -243 69z" fill="url(#gradiente)"/>
<path d="M9685 6837 c-21 -12 -53 -41 -69 -65 -25 -35 -31 -55 -34 -113 -4
-60 -1 -77 23 -125 53 -107 159 -142 265 -87 129 68 156 216 60 326 -74 84
-167 108 -245 64z" fill="url(#gradiente)"/>
<path d="M8215 5711 c-73 -18 -138 -73 -155 -131 -31 -108 76 -210 220 -210
77 0 121 13 168 48 122 90 82 241 -74 288 -50 15 -110 17 -159 5z" fill="url(#gradiente)"/>
<path d="M7592 5080 c-68 -42 -122 -172 -107 -261 13 -73 94 -138 174 -139 57
0 118 36 149 88 23 40 27 58 27 122 0 64 -4 82 -28 123 -16 27 -43 57 -60 68
-42 25 -112 25 -155 -1z" fill="url(#gradiente)"/>
<path d="M6905 4447 c-76 -30 -105 -71 -105 -147 0 -134 67 -250 143 -250 78
0 198 86 241 172 33 66 33 103 0 152 -49 72 -188 109 -279 73z" fill="url(#gradiente)"/>
<path d="M6367 3749 c-88 -21 -159 -78 -172 -139 -19 -84 87 -164 219 -165
109 0 152 37 163 138 4 44 1 64 -16 100 -34 69 -93 90 -194 66z" fill="url(#gradiente)"/>
<path d="M5625 3168 c-149 -130 -86 -428 90 -428 185 0 243 333 77 442 -17 11
-46 18 -79 18 -44 0 -58 -5 -88 -32z" fill="url(#gradiente)"/>
<path d="M4952 2499 c-92 -46 -123 -156 -72 -248 32 -57 77 -81 151 -81 105 0
196 49 230 124 23 51 24 78 3 119 -48 96 -205 139 -312 86z" fill="url(#gradiente)"/>
<path d="M4407 1871 c-126 -64 -205 -182 -177 -265 29 -89 166 -147 278 -117
54 15 109 63 121 107 21 76 -23 232 -77 274 -32 26 -96 26 -145 1z" fill="url(#gradiente)"/>
<path d="M3695 1246 c-49 -22 -68 -51 -73 -112 -8 -91 13 -158 63 -211 42 -44
46 -45 90 -41 82 10 145 99 152 218 5 76 -7 104 -56 137 -39 27 -126 31 -176
9z" fill="url(#gradiente)"/>
</g>
</svg>
